<?xml version="1.0" encoding="utf-8"?>
<!-- Generator: Adobe Illustrator 21.1.0, SVG Export Plug-In . SVG Version: 6.00 Build 0)  -->
<svg version="1.1" id="Icons" xmlns="http://www.w3.org/2000/svg" xmlns:xlink="http://www.w3.org/1999/xlink" x="0px" y="0px"
	 viewBox="0 0 48 48" style="enable-background:new 0 0 48 48;" xml:space="preserve">
<style type="text/css">
	.st0{fill:#FFE500;}
	.st1{fill:#FFA694;}
	.st2{fill:#FFF48C;}
	.st3{fill:none;stroke:#45413C;stroke-linecap:round;stroke-linejoin:round;stroke-miterlimit:10;}
	.st4{fill:#FF866E;}
	.st5{opacity:0.15;fill:#45413C;}
	.st6{fill:none;stroke:#45413C;stroke-linecap:round;stroke-miterlimit:10;}
	.st7{fill:#FF6242;}
	.st8{fill:#FFB0CA;stroke:#45413C;stroke-linecap:round;stroke-linejoin:round;stroke-miterlimit:10;}
	.st9{fill:#FF866E;stroke:#45413C;stroke-linecap:round;stroke-linejoin:round;stroke-miterlimit:10;}
	.st10{fill:#FFFFFF;stroke:#45413C;stroke-linecap:round;stroke-linejoin:round;stroke-miterlimit:10;}
	.st11{fill:#FFE500;stroke:#45413C;stroke-linecap:round;stroke-linejoin:round;stroke-miterlimit:10;}
	.st12{fill:#45413C;stroke:#45413C;stroke-linecap:round;stroke-linejoin:round;stroke-miterlimit:10;}
	.st13{fill:#00B8F0;}
	.st14{fill:#4ACFFF;}
	.st15{fill:#B89558;stroke:#45413C;stroke-linecap:round;stroke-linejoin:round;stroke-miterlimit:10;}
	.st16{fill:#B89558;}
	.st17{fill:#F7E5C6;}
	.st18{fill:#DEBB7E;}
	.st19{fill:#947746;stroke:#45413C;stroke-miterlimit:10;}
	.st20{fill:#FF866E;stroke:#45413C;stroke-miterlimit:10;}
	.st21{fill:#FFF5E3;stroke:#45413C;stroke-linecap:round;stroke-linejoin:round;stroke-miterlimit:10;}
	.st22{fill:#DEBB7E;stroke:#45413C;stroke-linecap:round;stroke-linejoin:round;stroke-miterlimit:10;}
	.st23{fill:#B89558;stroke:#45413C;stroke-miterlimit:10;}
	.st24{fill:#FFAA54;}
	.st25{fill:#724F3D;}
	.st26{fill:#A86C4D;}
	.st27{fill:#FFDA8F;}
	.st28{fill:#FFE9BD;}
	.st29{fill:#FFBE3D;}
	.st30{fill:#614B44;}
	.st31{fill:#947063;}
	.st32{fill:#D18660;}
	.st33{fill:#E09F7E;}
	.st34{fill:#BD704A;}
	.st35{fill:#FFDA8F;stroke:#45413C;stroke-linecap:round;stroke-linejoin:round;stroke-miterlimit:10;}
	.st36{fill:#D18660;stroke:#45413C;stroke-miterlimit:10;}
	.st37{fill:#DE926A;}
	.st38{fill:#FFCEBF;stroke:#45413C;stroke-linecap:round;stroke-linejoin:round;stroke-miterlimit:10;}
	.st39{fill:#FFB59E;}
	.st40{fill:#E0E0E0;}
	.st41{fill:#FFFFFF;}
	.st42{fill:#FFCEBF;}
	.st43{fill:#FFDCD1;}
	.st44{fill:#F0F0F0;stroke:#45413C;stroke-linecap:round;stroke-linejoin:round;stroke-miterlimit:10;}
	.st45{fill:#00DFEB;stroke:#45413C;stroke-linecap:round;stroke-linejoin:round;stroke-miterlimit:10;}
	.st46{fill:#EBCB00;}
	.st47{fill:#87898C;stroke:#45413C;stroke-linecap:round;stroke-linejoin:round;stroke-miterlimit:10;}
	.st48{fill:#C0DCEB;stroke:#45413C;stroke-linecap:round;stroke-linejoin:round;stroke-miterlimit:10;}
	.st49{fill:#E8F4FA;}
	.st50{fill:#80DDFF;}
	.st51{fill:#FF6196;}
	.st52{fill:#FF6196;stroke:#45413C;stroke-linecap:round;stroke-linejoin:round;stroke-miterlimit:10;}
	.st53{fill:#724F3D;stroke:#45413C;stroke-linecap:round;stroke-linejoin:round;stroke-miterlimit:10;}
	.st54{fill:#656769;stroke:#45413C;stroke-linecap:round;stroke-linejoin:round;stroke-miterlimit:10;}
	.st55{fill:#DAEDF7;stroke:#45413C;stroke-linecap:round;stroke-linejoin:round;stroke-miterlimit:10;}
	.st56{fill:#F0D5A8;}
	.st57{fill:#DAEDF7;}
	.st58{fill:#A86C4D;stroke:#45413C;stroke-linecap:round;stroke-linejoin:round;stroke-miterlimit:10;}
	.st59{fill:#FF6242;stroke:#45413C;stroke-linecap:round;stroke-linejoin:round;stroke-miterlimit:10;}
	.st60{fill:#009FD9;stroke:#45413C;stroke-linecap:round;stroke-linejoin:round;stroke-miterlimit:10;}
	.st61{fill:#656769;}
	.st62{fill:#525252;}
	.st63{fill:#525252;stroke:#45413C;stroke-linecap:round;stroke-linejoin:round;stroke-miterlimit:10;}
	.st64{fill:#6DD627;}
	.st65{fill:#009FD9;}
	.st66{fill:#ADC4D9;}
	.st67{fill:#C0DCEB;}
	.st68{fill:#FF8A14;}
	.st69{fill:#EB6D00;}
	.st70{fill:#00DBA8;stroke:#45413C;stroke-linecap:round;stroke-linejoin:round;stroke-miterlimit:10;}
	.st71{fill:#B8ECFF;}
	.st72{fill:#FF87AF;}
	.st73{fill:#80DDFF;stroke:#45413C;stroke-linecap:round;stroke-linejoin:round;stroke-miterlimit:10;}
	.st74{fill:#00DBA8;}
	.st75{fill:#00F5BC;}
	.st76{fill:#E5FEFF;stroke:#45413C;stroke-linecap:round;stroke-linejoin:round;stroke-miterlimit:10;}
	.st77{fill:#46B000;}
	.st78{fill:#46B000;stroke:#45413C;stroke-linecap:round;stroke-linejoin:round;stroke-miterlimit:10;}
	.st79{fill:#BF8256;stroke:#45413C;stroke-linecap:round;stroke-linejoin:round;stroke-miterlimit:10;}
	.st80{fill:#ADC4D9;stroke:#45413C;stroke-linecap:round;stroke-linejoin:round;stroke-miterlimit:10;}
	.st81{fill:#BDBEC0;}
	.st82{fill:#F0F0F0;}
	.st83{fill:#FFB59E;stroke:#45413C;stroke-linecap:round;stroke-linejoin:round;stroke-miterlimit:10;}
	.st84{fill:#45413C;}
	.st85{fill:#E04122;}
	.st86{fill:none;stroke:#48CF3E;stroke-linecap:round;stroke-linejoin:round;stroke-miterlimit:10;}
	.st87{fill:none;stroke:#FF4064;stroke-linecap:round;stroke-linejoin:round;stroke-miterlimit:10;}
	.st88{fill:none;stroke:#FFB700;stroke-linecap:round;stroke-linejoin:round;stroke-miterlimit:10;}
	.st89{fill:#BF8DF2;}
	.st90{fill:#9F5AE5;}
	.st91{fill:#00AD85;}
	.st92{fill:#8CA4B8;}
	.st93{fill:#627B8C;}
	.st94{fill:#627B8C;stroke:#45413C;stroke-linecap:round;stroke-linejoin:round;stroke-miterlimit:10;}
	.st95{fill:#87898C;}
	.st96{fill:#FF8A14;stroke:#45413C;stroke-linecap:round;stroke-linejoin:round;stroke-miterlimit:10;}
	.st97{fill:#E04122;stroke:#45413C;stroke-linecap:round;stroke-linejoin:round;stroke-miterlimit:10;}
	.st98{fill:#EBCB00;stroke:#45413C;stroke-linecap:round;stroke-linejoin:round;stroke-miterlimit:10;}
	.st99{fill:#6DD627;stroke:#45413C;stroke-linecap:round;stroke-linejoin:round;stroke-miterlimit:10;}
	.st100{fill:#FFB0CA;}
	.st101{fill:#FFB59E;stroke:#FFAA54;stroke-miterlimit:10;}
	.st102{fill:#FF87AF;stroke:#45413C;stroke-linecap:round;stroke-linejoin:round;stroke-miterlimit:10;}
</style>
<g>
	<ellipse id="XMLID_18167_" class="st5" cx="24" cy="44.5" rx="12.5" ry="1.5"/>
	<g id="XMLID_18156_">
		<path class="st58" d="M24,5C15.9,5,9.4,11.5,9.4,19.6v7.6h29.2v-7.6C38.6,11.5,32.1,5,24,5z"/>
		<path class="st38" d="M40.2,26.1c-0.1-1.1-1-2-2.1-2.3l-0.9-0.2C35.9,23.2,35,22,35,20.7v-3.1c0-1.3-0.9-2.4-2.1-2.7
			c-2.3,1-5.4,1.6-8.9,1.6s-6.6-0.6-8.9-1.6c-1.2,0.3-2.1,1.4-2.1,2.7v3.1c0,1.4-0.9,2.6-2.2,2.9l-0.9,0.2c-1.1,0.3-2,1.2-2.1,2.3
			c-0.1,1.6,1.1,2.9,2.7,2.9c0.1,0,0.1,0,0.2,0c1,6.5,6.5,11.5,13.3,11.5s12.3-5,13.3-11.5c0.1,0,0.1,0,0.2,0
			C39,29.1,40.3,27.7,40.2,26.1z"/>
		<circle id="XMLID_18166_" class="st12" cx="17.1" cy="25.8" r="1.1"/>
		<circle id="XMLID_18165_" class="st12" cx="30.9" cy="25.8" r="1.1"/>
		<g id="XMLID_18161_">
			<g id="XMLID_18162_">
				<path id="XMLID_18164_" class="st7" d="M20.3,33.1c-0.2,0-0.3,0.1-0.4,0.2c-0.1,0.1-0.2,0.3-0.1,0.5c0.3,2.1,2.1,3.6,4.3,3.6
					c2.2,0,3.9-1.5,4.3-3.6c0-0.2,0-0.3-0.1-0.5c-0.1-0.1-0.3-0.2-0.4-0.2H20.3z"/>
				<path id="XMLID_18163_" class="st1" d="M24,34.9c-1.3,0-2.5,0.4-3.3,1c0.8,0.9,2,1.5,3.3,1.5s2.5-0.6,3.3-1.5
					C26.5,35.3,25.3,34.9,24,34.9z"/>
			</g>
		</g>
		<g id="XMLID_18159_">
			<path id="XMLID_18160_" class="st3" d="M20.3,33.1c-0.2,0-0.3,0.1-0.4,0.2c-0.1,0.1-0.2,0.3-0.1,0.5c0.3,2.1,2.1,3.6,4.3,3.6
				c2.2,0,3.9-1.5,4.3-3.6c0-0.2,0-0.3-0.1-0.5c-0.1-0.1-0.3-0.2-0.4-0.2H20.3z"/>
		</g>
		<ellipse id="XMLID_18158_" class="st39" cx="15.2" cy="30.7" rx="1.5" ry="0.9"/>
		<ellipse id="XMLID_18157_" class="st39" cx="32.8" cy="30.7" rx="1.5" ry="0.9"/>
	</g>
	<g>
		<path id="XMLID_18155_" class="st16" d="M43.5,15.3c0,3.4-8.7,6.5-19.5,6.5S4.5,18.7,4.5,15.3s8.7-4.7,19.5-4.7
			S43.5,11.9,43.5,15.3z"/>
		<path id="XMLID_18154_" class="st18" d="M24,13.6c9.1,0,16.7,0.9,18.9,3.2c0.4-0.5,0.6-1,0.6-1.6c0-3.4-8.7-4.7-19.5-4.7
			c-10.8,0-19.5,1.3-19.5,4.7c0,0.5,0.2,1.1,0.6,1.6C7.3,14.5,14.9,13.6,24,13.6z"/>
		<path id="XMLID_18153_" class="st3" d="M43.5,15.3c0,3.4-8.7,6.5-19.5,6.5S4.5,18.7,4.5,15.3s8.7-4.7,19.5-4.7
			S43.5,11.9,43.5,15.3z"/>
		<path id="XMLID_18152_" class="st16" d="M36.8,15c0,0-0.6-8.1-6.1-11.4c-1.2-0.7-2.5-0.5-3.7,0.1c-2,0.9-4.2,0.9-6.2,0
			c-1.2-0.6-2.5-0.8-3.7-0.1C11.8,6.9,11.2,15,11.2,15s3.6,3,12.8,3S36.8,15,36.8,15z"/>
		<path id="XMLID_18151_" class="st18" d="M17.2,6.4c1.2-0.7,2.5-0.5,3.7,0.1c2,0.9,4.2,0.9,6.2,0c1.2-0.6,2.5-0.8,3.7-0.1
			c3.5,2.1,5,6.2,5.6,8.9c0.3-0.2,0.4-0.3,0.4-0.3s-0.6-8.1-6.1-11.4c-1.2-0.7-2.5-0.5-3.7,0.1c-2,0.9-4.2,0.9-6.2,0
			c-1.2-0.6-2.5-0.8-3.7-0.1C11.8,6.9,11.2,15,11.2,15s0.1,0.1,0.4,0.3C12.2,12.6,13.7,8.5,17.2,6.4z"/>
		<path id="XMLID_18150_" class="st3" d="M36.8,15c0,0-0.6-8.1-6.1-11.4c-1.2-0.7-2.5-0.5-3.7,0.1c-2,0.9-4.2,0.9-6.2,0
			c-1.2-0.6-2.5-0.8-3.7-0.1C11.8,6.9,11.2,15,11.2,15s3.6,3,12.8,3S36.8,15,36.8,15z"/>
		<path id="XMLID_18149_" class="st54" d="M24,13.7c-4.6,0-8.8-0.8-12.1-2.2c-0.6,2-0.7,3.5-0.7,3.5s3.6,3,12.8,3s12.8-3,12.8-3
			s-0.1-1.5-0.7-3.5C32.8,12.8,28.6,13.7,24,13.7z"/>
	</g>
	<g id="XMLID_18139_">
		
			<rect id="XMLID_18148_" x="34.5" y="30.4" transform="matrix(0.7877 -0.616 0.616 0.7877 -12.3082 28.6651)" class="st55" width="1.9" height="3.7"/>
		<path id="XMLID_18147_" class="st18" d="M40.5,37.7l-0.9,0.7c-0.4,0.3-0.9,0.2-1.2-0.1l-2.8-3.6c-0.3-0.4-0.2-0.9,0.1-1.2l0.9-0.7
			c0.4-0.3,0.9-0.2,1.2,0.1l2.8,3.6C40.9,36.9,40.8,37.4,40.5,37.7z"/>
		<path id="XMLID_18146_" class="st56" d="M40.6,36.5l-2.8-3.6c-0.3-0.4-0.8-0.4-1.2-0.1l-0.9,0.7c-0.1,0.1-0.2,0.2-0.2,0.3
			c0.4-0.3,0.9-0.2,1.2,0.2l2.8,3.6c0.2,0.3,0.2,0.6,0.1,0.9c0,0,0,0,0,0l0.9-0.7C40.8,37.4,40.9,36.9,40.6,36.5z"/>
		<path id="XMLID_18145_" class="st3" d="M40.5,37.7l-0.9,0.7c-0.4,0.3-0.9,0.2-1.2-0.1l-2.8-3.6c-0.3-0.4-0.2-0.9,0.1-1.2l0.9-0.7
			c0.4-0.3,0.9-0.2,1.2,0.1l2.8,3.6C40.9,36.9,40.8,37.4,40.5,37.7z"/>
		
			<ellipse id="XMLID_18144_" transform="matrix(0.7877 -0.616 0.616 0.7877 -9.5398 24.396)" class="st57" cx="30.6" cy="26" rx="6.5" ry="6.5"/>
		<path id="XMLID_18143_" class="st41" d="M26.6,22.6c2.8-2.2,6.9-1.7,9.1,1.1c0.8,1,1.2,2.1,1.3,3.2c0.2-1.7-0.2-3.4-1.3-4.9
			c-2.2-2.8-6.3-3.3-9.1-1.1c-1.9,1.5-2.7,3.7-2.4,5.9C24.4,25.2,25.2,23.7,26.6,22.6z"/>
		
			<ellipse id="XMLID_18142_" transform="matrix(0.7877 -0.616 0.616 0.7877 -9.5398 24.396)" class="st3" cx="30.6" cy="26" rx="6.5" ry="6.5"/>
		
			<ellipse id="XMLID_18141_" transform="matrix(0.7877 -0.616 0.616 0.7877 -9.5398 24.396)" class="st13" cx="30.6" cy="26" rx="4.6" ry="4.6"/>
		<path class="st14" d="M27.4,29.3l6.5-6.5c-1.6-1.6-4.2-1.8-6.1-0.4c-2,1.6-2.4,4.5-0.8,6.5C27.1,29,27.2,29.2,27.4,29.3z"/>
		
			<ellipse id="XMLID_18140_" transform="matrix(0.7877 -0.616 0.616 0.7877 -9.5398 24.396)" class="st3" cx="30.6" cy="26" rx="4.6" ry="4.6"/>
	</g>
</g>
</svg>
